<?xml version="1.0" encoding="utf-8"?>
<!-- Generator: Adobe Illustrator 18.1.1, SVG Export Plug-In . SVG Version: 6.00 Build 0)  -->
<!DOCTYPE svg PUBLIC "-//W3C//DTD SVG 1.1//EN" "http://www.w3.org/Graphics/SVG/1.1/DTD/svg11.dtd">
<svg version="1.1" id="Layer_1" xmlns="http://www.w3.org/2000/svg" xmlns:xlink="http://www.w3.org/1999/xlink" x="0px" y="0px"
	 viewBox="0 0 960 560" enable-background="new 0 0 960 560" xml:space="preserve">
<g>
	<path fill="#FFFFFF" d="M481.8,286.2c22.6,0,44.9,0,67.4,0c2.9,0,4.4,0.9,5.6,3.2c22.3,39.3,44.9,78.3,67.4,117.6
		c1.5,2.6,1.5,4.7,0,7.3c-22.3,38.7-44.6,77.1-66.6,115.8c-1.8,3.2-3.8,4.7-7.6,4.7c-44.3-0.3-88.5,0-132.8,0
		c-3.5,0-5.6-1.2-7.3-4.4c-22-38.7-44-77.1-66.3-115.5c-1.8-3.2-2.1-5.6,0-8.8c22.3-38.7,44.6-77.4,66.8-116.4
		c1.5-2.6,3.2-3.5,6.5-3.5C436.9,286.2,459.5,286.2,481.8,286.2z M465.6,502.5c9.7,0,18.8-0.3,27.6,0c4.1,0,5-0.9,5-5
		c-0.3-39.6,0-79.2,0-118.7c0-2.1,0-3.8,0-6.5c19.1,0,37.5,0,55.7,0c0-10.8,0-21.4,0-31.7c-48.4,0-96.5,0-144.8,0
		c0,10.8,0,21.1,0,32c18.8,0,37.2,0,56.3,0C465.6,416.3,465.6,459.1,465.6,502.5z"/>
	<path fill="#FFFFFF" d="M481.5,265.3c-22.6,0-44.9,0-67.4,0c-2.9,0-4.7-0.9-6.2-3.5c-22.3-39.3-44.9-78.3-67.4-117.3
		c-1.5-2.3-1.5-4.1,0-6.5c22.6-39.3,45.2-78.6,67.7-117.9c1.5-2.3,2.9-3.2,5.9-3.2c44.9,0,89.7,0,134.6,0c3.2,0,5,0.9,6.5,3.8
		c22.3,39,44.6,78,67.1,117c1.8,2.9,1.5,4.7,0,7.3c-22.3,38.7-44.6,77.1-66.6,115.8c-2.1,3.5-4.1,4.4-7.9,4.4
		C525.7,265,503.7,265.3,481.5,265.3z M583.2,155.7c1.2-2.3,2.1-4.1,3.2-5.3c5.3-6.2,4.4-11.7,0.3-18.5
		c-16.4-27.6-32.3-55.7-48.4-83.3c-0.9-1.5-2.9-3.2-4.7-3.2c-34.6-0.3-69.5-0.3-104.1,0c-1.5,0-3.5,1.2-4.1,2.3
		c-17.6,30.2-34.9,60.7-52.5,90.9c-0.6,0.9-1.2,2.6-0.9,3.2c2.3,4.7,5.3,9.1,7.9,14.1c29-26.7,57.8-52.8,85.6-78.3
		c7.6,7,15,14.1,22,20.8c6.2,5.9,6.2,6.2,13.2,1.2c2.6-2.1,4.4-1.8,7,0c14.1,10.8,28.4,21.1,42.8,31.7
		C561.5,139.6,572.1,147.5,583.2,155.7z M466.5,95.3c-24.3,20.8-48.4,41.3-72.4,61.6c4.7-1.8,8.8-4.4,12.9-6.7
		c1.8-1.2,4.4-2.1,6.2-2.1c9.1,1.2,16.4-1.8,22.9-8.5c0.6-0.6,1.5-1.5,2.1-1.8c2.3-0.6,5-2.1,7-1.5c11.1,2.3,22,3.8,32.8-1.8
		c1.5-0.6,4.1,0.3,5.6,1.2c5.9,4.1,12,7.9,17.3,12.6c6.2,5.6,12,6.5,19.1,2.1c6.2-4.1,12.3-3.5,19.4-0.9c10.6,4.1,21.4,7.3,32,10.8
		c0.3-0.3,0.3-0.6,0.6-0.9c-0.6-0.3-1.2-0.6-1.5-0.9c-21.1-15.2-42.2-30.8-63-46.3c-2.1-1.5-3.2-1.2-5,0.6
		c-4.4,4.1-8.8,8.2-13.8,12.3C480.9,115.2,473.8,105.5,466.5,95.3z M530.7,246.9c-1.5-1.5-2.3-2.1-2.9-2.6c-5.9-4.7-12-8.8-17-14.1
		c-7.6-7.9-15.2-15.8-22-24.6c-4.4-5.6-5.6-12.3-3.2-19.6c4.4-15-4.4-35.2-17.3-42.5c2.9,5.6,6.7,11.7,9.4,18.2
		c3.5,9.4,1.8,15.2-6.2,21.4c-3.8,2.9-6.2,7-5.6,11.7c0.6,4.1,1.5,8.2,3.2,11.7c7.9,16.1,19.9,28.4,33.7,39.3
		c0.6,0.6,1.5,1.2,2.3,1.2C513.1,246.9,521.3,246.9,530.7,246.9z"/>
	<path fill="#FFFFFF" d="M716,399.9c-22.6,0-44.9,0-67.4,0c-3.2,0-4.7-0.9-6.5-3.8c-22.3-38.7-44.6-77.4-66.8-116.1
		c-1.8-2.9-1.8-5.3,0-8.2c22.6-39,44.9-78,67.1-117c1.5-2.3,2.9-3.2,5.6-3.2c45.2,0,90.3,0,135.5,0c2.3,0,3.8,0.6,5,2.9
		c22.6,39.6,45.4,79.2,68,118.7c0.9,1.5,0.9,4.1,0,5.6c-22.6,39.6-45.2,78.9-67.7,118.5c-1.5,2.6-3.2,2.9-5.9,2.9
		C760.9,399.9,738.6,399.9,716,399.9z M643.3,309.9c0,4.7,0.6,9.4,0,13.5c-2.1,13.5,2.3,23.7,13.2,31.7c2.6,2.1,4.7,3.2,7.9,3.2
		c29.6,0,59.5-0.9,89.1,0.3c13.8,0.6,24.6-2.1,32.3-13.8c1.5-2.1,2.9-4.7,2.9-7c0.3-15-0.6-29.9,0.3-44.6c0.9-11.4-1.8-20.2-11.1-27
		c-0.6-0.6-1.5-1.2-1.8-2.1c-1.8-2.6-4.1-3.2-7.3-3.2c-29,0-58.3,0-87.4,0c-1.8,0-3.5-0.3-5-0.3c0-10.8,0-21.4,0-31.7
		c27,0,53.7,0,80.6,0c0,5.3,0,10.3,0,15.5c10.8,0,21.1,0,32,0c0-7.9-0.3-15.2,0-22.9c0.3-6.2-0.9-11.1-5.9-15
		c-2.9-2.3-5-5.3-7.6-7.6c-1.8-1.5-4.4-2.6-6.7-2.6c-34-0.3-68,0-102-0.3c-5.3,0-9.1,1.2-12,5.3c-2.6,3.2-5.9,5.9-8.5,8.8
		c-1.5,1.8-2.6,4.4-2.6,6.7c-0.3,17.6,0.6,35.2-0.3,52.8c-0.3,9.1,2.1,15.2,10.3,19.9c4.4,2.6,8.5,4.4,13.8,4.4
		c28.1-0.3,56,0,84.1,0c1.8,0,3.5,0,5.3,0c0,11.1,0,21.4,0,32c-27,0-53.7,0-80.6,0c0-5.3,0-10.6,0-15.5
		C664.7,309.9,654.5,309.9,643.3,309.9z"/>
	<path fill="#FFFFFF" d="M246.9,399.9c-22.3,0-44.6,0-66.8,0c-3.2,0-5-0.9-6.7-3.8c-22.3-38.7-44.6-77.7-66.8-116.4
		c-1.5-2.6-2.1-4.4-0.3-7.3c22.6-39.3,45.2-78.6,67.7-117.9c1.2-2.3,2.6-3.2,5.3-3.2c45.2,0,90.3,0,135.5,0c2.6,0,4.1,0.6,5.3,2.9
		c22.6,39.6,45.2,78.9,68,118.2c1.2,2.3,1.2,3.8,0,6.2c-22.3,39.6-45.2,79.2-67.7,118.5c-1.5,2.3-2.9,2.9-5.6,2.9
		C292.4,399.9,269.8,399.9,246.9,399.9z M319.9,277.7c0-18.5-0.3-36.9,0-55.4c0-6.5-0.9-11.7-6.5-15.8c-2.6-1.8-4.7-4.4-6.7-6.7
		c-2.1-2.6-4.4-3.5-7.9-3.5c-34,0-68.3,0.3-102.3,0c-4.4,0-7.6,1.2-10.6,4.7c-2.6,3.5-6.2,6.2-9.1,9.7c-1.5,1.8-2.6,4.4-2.6,6.7
		c-0.3,35.8,0.6,71.2-0.6,107c-0.3,13.2,2.3,23.5,13.2,31.4c2.6,1.8,4.7,3.2,7.9,3.2c30.2,0,60.4-0.9,90.6,0.3
		c13.2,0.6,23.5-2.3,31.1-13.5c1.5-2.1,2.9-5,2.9-7.6C319.9,317.5,319.9,297.6,319.9,277.7z"/>
	<path fill="#FFFFFF" d="M207.6,229c27,0,53.4,0,80.3,0c0,32.3,0,64.2,0,96.8c-26.7,0-53.4,0-80.3,0
		C207.6,293.8,207.6,261.5,207.6,229z"/>
</g>
</svg>
